<svg xmlns="http://www.w3.org/2000/svg" xmlns:xlink="http://www.w3.org/1999/xlink" width="563" height="720" viewBox="0 0 563 720">
  <defs>
    <filter id="Path_151" x="177" y="616" width="209.702" height="95" filterUnits="userSpaceOnUse">
      <feOffset dy="3" input="SourceAlpha"/>
      <feGaussianBlur stdDeviation="5" result="blur"/>
      <feFlood flood-opacity="0.29"/>
      <feComposite operator="in" in2="blur"/>
      <feComposite in="SourceGraphic"/>
    </filter>
  </defs>
  <g id="Group_368" data-name="Group 368" transform="translate(-1082 -270)">
    <rect id="Rectangle_562" data-name="Rectangle 562" width="563" height="720" rx="63" transform="translate(1082 270)" fill="rgba(255,134,0,0.05)"/>
    <g id="Group_367" data-name="Group 367" transform="translate(17 70)">
      <g id="Group_365" data-name="Group 365" transform="translate(0 -57)">
        <path id="Path_133" data-name="Path 133" d="M9,0H214a9,9,0,0,1,0,18H9A9,9,0,0,1,9,0Z" transform="translate(1246 299)" fill="#ff8600" opacity="0.1"/>
        <g id="Group_364" data-name="Group 364" transform="translate(0 2)">
          <g id="Group_361" data-name="Group 361" transform="translate(0 -32)">
            <g id="Group_360" data-name="Group 360">
              <text id="Send_Us_a_Message" data-name="Send Us a Message" transform="translate(1220 336)" fill="#151d41" font-size="28" font-family="JosefinSans-SemiBold, Josefin Sans" font-weight="600"><tspan x="0" y="0">Send Us a Message</tspan></text>
              <g id="Group_363" data-name="Group 363" transform="translate(1133 393)">
                <g id="Group_362" data-name="Group 362">
                  <g id="Rectangle_76" data-name="Rectangle 76" fill="#fff" stroke="#151d41" stroke-width="1">
                    <rect width="428" height="64" rx="5" stroke="none"/>
                    <rect x="0.5" y="0.5" width="427" height="63" rx="4.5" fill="none"/>
                  </g>
                  <g id="Rectangle_77" data-name="Rectangle 77" transform="translate(0 108)" fill="#fff" stroke="#151d41" stroke-width="1">
                    <rect width="428" height="64" rx="5" stroke="none"/>
                    <rect x="0.5" y="0.5" width="427" height="63" rx="4.5" fill="none"/>
                  </g>
                  <g id="Rectangle_113" data-name="Rectangle 113" transform="translate(0 218)" fill="#fff" stroke="#151d41" stroke-width="1">
                    <rect width="428" height="64" rx="5" stroke="none"/>
                    <rect x="0.5" y="0.5" width="427" height="63" rx="4.5" fill="none"/>
                  </g>
                  <g id="Rectangle_561" data-name="Rectangle 561" transform="translate(0 328)" fill="#fff" stroke="#151d41" stroke-width="1">
                    <rect width="428" height="131" rx="5" stroke="none"/>
                    <rect x="0.5" y="0.5" width="427" height="130" rx="4.5" fill="none"/>
                  </g>
                </g>
                <text id="Name" transform="translate(18 39)" fill="#151d41" font-size="13" font-family="JosefinSans-Regular, Josefin Sans"><tspan x="0" y="0">Name</tspan></text>
                <text id="Email" transform="translate(18 147)" fill="#151d41" font-size="13" font-family="JosefinSans-Regular, Josefin Sans"><tspan x="0" y="0">Email</tspan></text>
                <text id="Phone_" data-name="Phone#" transform="translate(18 257)" fill="#151d41" font-size="13" font-family="JosefinSans-Regular, Josefin Sans"><tspan x="0" y="0">Phone#</tspan></text>
              </g>
              <text id="Your_query" data-name="Your query" transform="translate(1148 746)" fill="#707070" font-size="13" font-family="SegoeUI, Segoe UI"><tspan x="0" y="0">Your query</tspan></text>
            </g>
          </g>
        </g>
      </g>
      <g id="Group_366" data-name="Group 366" transform="translate(758 227)">
        <g id="Group_350" data-name="Group 350" transform="translate(499 601)">
          <g transform="matrix(1, 0, 0, 1, -192, -628)" filter="url(#Path_151)">
            <path id="Path_151-2" data-name="Path 151" d="M22.291,0H157.411C169.722,0,179.7,14.551,179.7,32.5S169.722,65,157.411,65H22.291C9.98,65,0,50.449,0,32.5S9.98,0,22.291,0Z" transform="translate(192 628)" fill="#f6921e"/>
          </g>
          <text id="Submit" transform="translate(44 41)" fill="#fff" font-size="25" font-family="Poppins-Bold, Poppins" font-weight="700"><tspan x="0" y="0">Submit</tspan></text>
        </g>
      </g>
    </g>
  </g>
</svg>
