<?xml version="1.0"?>
<svg xmlns="http://www.w3.org/2000/svg" xmlns:xlink="http://www.w3.org/1999/xlink" xmlns:svgjs="http://svgjs.com/svgjs" version="1.1" width="512" height="512" x="0" y="0" viewBox="0 0 511.5 511.5" style="enable-background:new 0 0 512 512" xml:space="preserve" class=""><g><g xmlns="http://www.w3.org/2000/svg"><path d="m195.499 30h40v15h-40z" fill="#e77836" data-original="#000000" style=""/><path d="m165.499 30h15v15h-15z" fill="#e77836" data-original="#000000" style=""/><path d="m250.499 30h15v15h-15z" fill="#e77836" data-original="#000000" style=""/><path d="m207.999 390h15v15h-15z" fill="#e77836" data-original="#000000" style=""/><path d="m342.999 295.523v92.187h15v-92.187c0-11.585-5.975-21.796-15-27.73v-26.081l23.097 2.097 17.153 46.675 14.079-5.174-20.425-55.581-33.903-3.08v-66.578h-15v102.436c-1.044-.099-2.1-.155-3.17-.155-6.965 0-13.444 2.117-18.83 5.74v-140.592c0-15.163-12.336-27.5-27.5-27.5h-126c-15.164 0-27.5 12.337-27.5 27.5v180c0 15.163 12.336 27.5 27.5 27.5h126c4.5 0 8.747-1.093 12.5-3.018v18.574c-24.155 17.399-38.455 45.198-38.455 75.167 0 8.513 1.178 16.982 3.5 25.172l14.431-4.092c-1.944-6.858-2.931-13.951-2.931-21.08 0-26.271 13.109-50.553 35.067-64.952l3.387-2.221v-51.05-11.316c0-10.383 8.447-18.83 18.83-18.83 10.019 0 18.17 8.151 18.17 18.169zm-173 24.477h-17.5c-6.893 0-12.5-5.607-12.5-12.5v-180c0-6.893 5.607-12.5 12.5-12.5h17.5zm40 0h-25v-205h25zm81-12.5c0 6.893-5.607 12.5-12.5 12.5h-53.5v-205h53.5c6.893 0 12.5 5.607 12.5 12.5z" fill="#e77836" data-original="#000000" style=""/><path d="m261.744 465.962 8.255 18.163v27.375h15v-30.625l-9.6-21.12z" fill="#e77836" data-original="#000000" style=""/><path d="m402.502 299.391-14.079 5.173 19.074 51.905-35.189 93.531h-38.809v15h36.5v15h-22.5v15h22.5v16.5h15v-52.636l38.502-102.334z" fill="#e77836" data-original="#000000" style=""/><path d="m102.999 75h225v70.072h15v-107.572c0-20.678-16.822-37.5-37.5-37.5h-135.285v15h135.285c12.407 0 22.5 10.094 22.5 22.5v22.5h-225v-22.5c0-12.406 10.093-22.5 22.5-22.5h29.715v-15h-29.715c-20.678 0-37.5 16.822-37.5 37.5v213.143h15z" fill="#e77836" data-original="#000000" style=""/><path d="m102.999 265.643h-15v131.857c0 20.678 16.822 37.5 37.5 37.5h111v-15h-111c-12.407 0-22.5-10.094-22.5-22.5v-22.5h149.5v-15h-149.5z" fill="#e77836" data-original="#000000" style=""/><path d="m260.999 167.5h15v15h-15z" fill="#e77836" data-original="#000000" style=""/><path d="m260.999 137.5h15v15h-15z" fill="#e77836" data-original="#000000" style=""/><path d="m303.499 450h15v15h-15z" fill="#e77836" data-original="#000000" style=""/></g></g></svg>
