<?xml version="1.0"?>
<svg xmlns="http://www.w3.org/2000/svg" xmlns:xlink="http://www.w3.org/1999/xlink" xmlns:svgjs="http://svgjs.com/svgjs" version="1.1" width="512" height="512" x="0" y="0" viewBox="0 0 512 512" style="enable-background:new 0 0 512 512" xml:space="preserve" class=""><g><path xmlns="http://www.w3.org/2000/svg" d="M99.9,174.872a8,8,0,0,0,8.276-.05C109.968,173.726,152,147.391,152,96a8,8,0,0,0-3.884-6.86l-40-24a8,8,0,0,0-8.232,0l-40,24A8,8,0,0,0,56,95.957C55.988,98.1,56.217,148.829,99.9,174.872ZM104,81.33l31.87,19.122c-1.85,31.565-23.019,51-32.052,57.908-25.31-17.743-30.489-47.024-31.547-57.993Z" fill="#ed8326" data-original="#000000" style="" class=""/><path xmlns="http://www.w3.org/2000/svg" d="M56,216H280a8,8,0,0,0,0-16H56a8,8,0,0,0,0,16Z" fill="#ed8326" data-original="#000000" style="" class=""/><path xmlns="http://www.w3.org/2000/svg" d="M56,248H304a8,8,0,0,0,0-16H56a8,8,0,0,0,0,16Z" fill="#ed8326" data-original="#000000" style="" class=""/><path xmlns="http://www.w3.org/2000/svg" d="M56,280H304a8,8,0,0,0,0-16H56a8,8,0,0,0,0,16Z" fill="#ed8326" data-original="#000000" style="" class=""/><path xmlns="http://www.w3.org/2000/svg" d="M280,296H56a8,8,0,0,0,0,16H280a8,8,0,0,0,0-16Z" fill="#ed8326" data-original="#000000" style="" class=""/><path xmlns="http://www.w3.org/2000/svg" d="M280,328H56a8,8,0,0,0,0,16H280a8,8,0,0,0,0-16Z" fill="#ed8326" data-original="#000000" style="" class=""/><path xmlns="http://www.w3.org/2000/svg" d="M216,384H149.766l-6.176-18.53a8,8,0,0,0-13.247-3.127L114.191,378.5l-3.036-6.073a8,8,0,0,0-11.593-3.078L77.578,384H56a8,8,0,0,0,0,16H80a8,8,0,0,0,4.438-1.344L100.9,387.683l3.948,7.895a8,8,0,0,0,5.874,4.318A7.914,7.914,0,0,0,112,400a8,8,0,0,0,5.657-2.343L132.5,382.81l3.906,11.72A8,8,0,0,0,144,400h72a8,8,0,0,0,0-16Z" fill="#ed8326" data-original="#000000" style="" class=""/><path xmlns="http://www.w3.org/2000/svg" d="M436.4,265.091l26.756-53.513A8,8,0,0,0,456,200H344v-8.367A88,88,0,0,0,336,16H24a8,8,0,0,0-8,8V488a8,8,0,0,0,8,8H488a8,8,0,0,0,8-8V336A72.1,72.1,0,0,0,436.4,265.091ZM443.056,216l-24,48H380.944l-24-48ZM363.6,265.091a71.382,71.382,0,0,0-19.6,6.437v-45.64ZM408,104a72,72,0,1,1-72-72A72.081,72.081,0,0,1,408,104ZM256,392v88H32V32H285.462A87.958,87.958,0,0,0,248,104H184a8,8,0,0,0,0,16h65.462a87.248,87.248,0,0,0,4.562,16H184a8,8,0,0,0,0,16h78.28A88.074,88.074,0,0,0,328,191.633v90.759A71.831,71.831,0,0,0,304,336v48H264A8,8,0,0,0,256,392Zm96,88H272V464h80Zm0-32H272V432h80Zm0-32H272V400h80Zm32,64H368V400h16Zm-23.194-96a40,40,0,1,1,78.388,0H416a16.019,16.019,0,0,0-16-16h8a8,8,0,0,0,0-16h-8a16,16,0,0,0,0,32H360.806ZM480,480H400V464h80Zm0-32H400V432h80Zm0-32H400V400h80Zm0-32H455.421a56,56,0,1,0-110.842,0H320V336a56.063,56.063,0,0,1,56-56h48a56.063,56.063,0,0,1,56,56Z" fill="#ed8326" data-original="#000000" style="" class=""/><path xmlns="http://www.w3.org/2000/svg" d="M314.343,133.657a8,8,0,0,0,11.314,0l48-48a8,8,0,0,0-11.314-11.314L320,116.686l-10.343-10.343a8,8,0,0,0-11.314,11.314Z" fill="#ed8326" data-original="#000000" style="" class=""/></g></svg>
