<svg xmlns="http://www.w3.org/2000/svg" width="715.375" height="752.417" viewBox="0 0 715.375 752.417">
  <path id="Path_1" data-name="Path 1" d="M827.672,177.042C849.277,284.333,874.026,345.747,954.6,370.615c63.736,19.672,88.978,101.23,65.892,166.21-14.709,41.4-49.191,76.075-105.979,83.407-76.136,9.828-127.942-8.594-169.541,43.032-74.187,92.092-130.966,22.5-141.51-20.153C564.467,485.407,472.5,528.18,403.342,441.082c-40.724-51.268-.9-109.917,74.883-123.565C593.951,296.688,621.147,229.185,630.4,196.8,652.739,118.612,806.066,69.731,827.672,177.042Z" transform="matrix(-0.208, 0.978, -0.978, -0.208, 907.719, -230.69)" fill="#ff9118" stroke="#ff8a00" stroke-miterlimit="10" stroke-width="1" opacity="0.5"/>
</svg>
